<svg width="100" height="100" viewBox="0 0 100 100" fill="none" xmlns="http://www.w3.org/2000/svg">
<g clip-path="url(#clip0_109_27)">
<path d="M23.2774 32.171H3.20226C2.31129 32.171 1.58936 32.8932 1.58936 33.7839V98.2768C1.58936 99.1677 2.31129 99.8897 3.20226 99.8897H23.2774C24.1684 99.8897 24.8903 99.1677 24.8903 98.2768V33.7839C24.8903 32.8932 24.1684 32.171 23.2774 32.171Z" fill="black"/>
<path d="M13.2471 0.109985C5.94258 0.109985 0 6.04611 0 13.3426C0 20.6422 5.94258 26.5806 13.2471 26.5806C20.5458 26.5806 26.4835 20.6419 26.4835 13.3426C26.4839 6.04611 20.5458 0.109985 13.2471 0.109985Z" fill="black"/>
<path d="M74.3399 30.5681C66.277 30.5681 60.3167 34.0342 56.7015 37.9726V33.7839C56.7015 32.8932 55.9796 32.171 55.0886 32.171H35.8631C34.9722 32.171 34.2502 32.8932 34.2502 33.7839V98.2768C34.2502 99.1677 34.9722 99.8897 35.8631 99.8897H55.8944C56.7854 99.8897 57.5073 99.1677 57.5073 98.2768V66.3677C57.5073 55.6152 60.428 51.4261 67.9235 51.4261C76.0867 51.4261 76.7354 58.1416 76.7354 66.921V98.2771C76.7354 99.1681 77.4573 99.89 78.3483 99.89H98.387C99.278 99.89 99.9999 99.1681 99.9999 98.2771V62.9016C99.9999 46.9129 96.9512 30.5681 74.3399 30.5681Z" fill="#101720"/>
</g>
<defs>
<clipPath id="clip0_109_27">
<rect width="100" height="100" fill="white"/>
</clipPath>
</defs>
</svg>
